<?xml version="1.0" encoding="UTF-8" standalone="no"?>
<!-- Created with Inkscape (http://www.inkscape.org/) -->

<svg
   xmlns:dc="http://purl.org/dc/elements/1.1/"
   xmlns:cc="http://creativecommons.org/ns#"
   xmlns:rdf="http://www.w3.org/1999/02/22-rdf-syntax-ns#"
   xmlns:svg="http://www.w3.org/2000/svg"
   xmlns="http://www.w3.org/2000/svg"
   xmlns:sodipodi="http://sodipodi.sourceforge.net/DTD/sodipodi-0.dtd"
   xmlns:inkscape="http://www.inkscape.org/namespaces/inkscape"
   width="117.60005mm"
   height="9.8805332mm"
   viewBox="0 0 117.60005 9.8805332"
   version="1.1"
   id="svg8"
   inkscape:version="0.92.5 (2060ec1f9f, 2020-04-08)"
   sodipodi:docname="email.svg">
  <defs
     id="defs2" />
  <sodipodi:namedview
     id="base"
     pagecolor="#ffffff"
     bordercolor="#666666"
     borderopacity="1.0"
     inkscape:pageopacity="0.0"
     inkscape:pageshadow="2"
     inkscape:zoom="1.979899"
     inkscape:cx="285.48509"
     inkscape:cy="-30.273763"
     inkscape:document-units="mm"
     inkscape:current-layer="layer1"
     showgrid="false"
     inkscape:window-width="1920"
     inkscape:window-height="1016"
     inkscape:window-x="0"
     inkscape:window-y="27"
     inkscape:window-maximized="1" />
  <metadata
     id="metadata5">
    <rdf:RDF>
      <cc:Work
         rdf:about="">
        <dc:format>image/svg+xml</dc:format>
        <dc:type
           rdf:resource="http://purl.org/dc/dcmitype/StillImage" />
        <dc:title></dc:title>
      </cc:Work>
    </rdf:RDF>
  </metadata>
  <g
     inkscape:label="Layer 1"
     inkscape:groupmode="layer"
     id="layer1"
     transform="translate(-19.482753,-91.655574)">
    <g
       aria-label="redacted"
       style="font-style:normal;font-weight:300;font-size:10.58333302px;line-height:1.25;font-family:sans-serif;letter-spacing:0px;word-spacing:0px;fill:#000000;fill-opacity:1;stroke:none;stroke-width:0.26458332"
       id="text817">
      <path
         d="m 24.061285,94.187719 v 0.506429 q -0.428915,-0.26355 -0.707967,-0.356567 -0.480591,-0.149862 -0.919841,-0.149862 -1.250569,0 -1.793172,0.640788 -0.542602,0.640787 -0.542602,1.979207 0,1.348755 0.542602,1.989542 0.542603,0.640788 1.793172,0.640788 0.413412,0 0.816488,-0.113688 0.408244,-0.10852 0.81132,-0.330729 v 0.480591 q -0.397909,0.186035 -0.821655,0.279052 -0.428915,0.09302 -0.847494,0.09302 -1.27124,0 -2.020548,-0.687296 -0.749309,-0.692465 -0.749309,-2.351278 0,-1.658814 0.749309,-2.351278 0.749308,-0.687296 2.020548,-0.687296 0.413412,0 0.878499,0.118856 0.465088,0.113688 0.79065,0.299723 z"
         style="stroke-width:0.26458332"
         id="path819"
         inkscape:connector-curvature="0" />
      <path
         d="m 29.358119,94.900854 q -0.511597,-0.713135 -1.395264,-0.713135 -0.883667,0 -1.395263,0.707967 -0.516765,0.702799 -0.516765,1.901693 0,1.229899 0.511597,1.932698 0.511597,0.707967 1.400431,0.707967 0.883667,0 1.395264,-0.707967 0.516764,-0.713135 0.516764,-1.932698 0,-1.183391 -0.516764,-1.896525 z M 27.957688,93.76914 q 1.105875,0 1.746663,0.826823 0.645956,0.83199 0.645956,2.206583 0,1.421102 -0.645956,2.242757 -0.640788,0.826823 -1.746663,0.826823 -1.116211,0 -1.762167,-0.821655 -0.640787,-0.821655 -0.640787,-2.247925 0,-1.390096 0.645955,-2.211751 0.645955,-0.821655 1.756999,-0.821655 z"
         style="stroke-width:0.26458332"
         id="path821"
         inkscape:connector-curvature="0" />
      <path
         d="m 32.391526,91.655574 h 0.475423 v 8.040852 h -0.475423 z"
         style="stroke-width:0.26458332"
         id="path823"
         inkscape:connector-curvature="0" />
      <path
         d="m 35.321579,93.908666 h 0.475423 v 5.78776 h -0.475423 z m 0,-2.253092 h 0.475423 v 0.651123 h -0.475423 z"
         style="stroke-width:0.26458332"
         id="path825"
         inkscape:connector-curvature="0" />
      <path
         d="m 42.644129,96.2031 v 3.493326 h -0.475423 v -3.46232 q 0,-1.126547 -0.361735,-1.586467 -0.361735,-0.45992 -1.064534,-0.45992 -0.821656,0 -1.405599,0.496094 -0.589112,0.501261 -0.589112,1.741495 v 3.271118 h -0.475423 v -5.78776 h 0.475423 v 1.085205 q 0.253215,-0.527099 0.666626,-0.806152 0.609782,-0.418579 1.348755,-0.418579 0.857829,0 1.369426,0.583943 0.511596,0.578776 0.511596,1.850017 z"
         style="stroke-width:0.26458332"
         id="path827"
         inkscape:connector-curvature="0" />
      <path
         d="m 49.145025,95.169571 q 0.268718,-0.697632 0.847494,-1.054199 0.54777,-0.346232 1.302246,-0.346232 0.754475,0 1.209228,0.532267 0.45992,0.5271 0.45992,1.901693 v 3.493326 h -0.470255 v -3.46232 q 0,-1.198894 -0.330729,-1.62264 -0.33073,-0.423747 -0.8785,-0.423747 -0.795817,0 -1.405599,0.490926 -0.666626,0.532267 -0.666626,1.746663 v 3.271118 h -0.475423 v -3.46232 q 0,-1.157553 -0.320394,-1.60197 -0.320393,-0.444417 -0.888834,-0.444417 -0.795817,0 -1.405599,0.496094 -0.666626,0.532267 -0.666626,1.741495 v 3.271118 h -0.475423 v -5.78776 h 0.475423 v 1.085205 q 0.253214,-0.568441 0.785482,-0.89917 0.537435,-0.325561 1.317749,-0.325561 0.506429,0 0.976684,0.341064 0.361735,0.26355 0.609782,1.059367 z"
         style="stroke-width:0.26458332"
         id="path829"
         inkscape:connector-curvature="0" />
      <path
         d="m 59.252935,94.187719 v 0.506429 q -0.428914,-0.26355 -0.707967,-0.356567 -0.480591,-0.149862 -0.91984,-0.149862 -1.25057,0 -1.793172,0.640788 -0.542603,0.640787 -0.542603,1.979207 0,1.348755 0.542603,1.989542 0.542602,0.640788 1.793172,0.640788 0.413411,0 0.816487,-0.113688 0.408244,-0.10852 0.81132,-0.330729 v 0.480591 q -0.397908,0.186035 -0.821655,0.279052 -0.428914,0.09302 -0.847493,0.09302 -1.271241,0 -2.020549,-0.687296 -0.749308,-0.692465 -0.749308,-2.351278 0,-1.658814 0.749308,-2.351278 0.749308,-0.687296 2.020549,-0.687296 0.413411,0 0.878499,0.118856 0.465088,0.113688 0.790649,0.299723 z"
         style="stroke-width:0.26458332"
         id="path831"
         inkscape:connector-curvature="0" />
      <path
         d="m 64.952843,95.231583 v -3.576009 h 0.465088 v 8.040852 h -0.465088 v -1.312581 q -0.325561,0.754476 -0.707967,1.033529 -0.583944,0.428914 -1.100708,0.428914 -1.028361,0 -1.71049,-0.837158 -0.682129,-0.837158 -0.682129,-2.201416 0,-1.364258 0.682129,-2.201416 0.682129,-0.837158 1.71049,-0.837158 0.516764,0 1.100708,0.428914 0.382406,0.279053 0.707967,1.033529 z m -3.100586,-0.43925 q -0.599446,0.604614 -0.599446,2.015381 0,1.410766 0.599446,2.015381 0.594279,0.604614 1.255738,0.604614 0.645955,0 1.245402,-0.604614 0.594279,-0.604615 0.594279,-2.015381 0,-1.410767 -0.594279,-2.015381 -0.599447,-0.604614 -1.245402,-0.604614 -0.661459,0 -1.255738,0.604614 z"
         style="stroke-width:0.26458332"
         id="path833"
         inkscape:connector-curvature="0" />
      <path
         d="m 70.616581,96.921402 q 0,0.89917 0.387574,1.410767 0.387573,0.511596 1.064534,0.511596 0.666626,0 1.054199,-0.516764 0.382406,-0.511597 0.382406,-1.405599 0,-0.878499 -0.392741,-1.395264 -0.392741,-0.521932 -1.054199,-0.521932 -0.661458,0 -1.054199,0.516765 -0.387574,0.516764 -0.387574,1.400431 z m 2.893881,1.545125 q -0.284221,0.397909 -0.656291,0.589112 -0.366903,0.186035 -0.857829,0.186035 -0.821655,0 -1.333252,-0.640788 -0.516764,-0.645955 -0.516764,-1.679484 0,-1.033529 0.516764,-1.679484 0.516765,-0.645955 1.333252,-0.645955 0.490926,0 0.862997,0.191202 0.37207,0.196371 0.651123,0.589112 v -0.676961 h 0.475423 v 4.010091 q 0.976684,-0.124024 1.405599,-0.718303 0.444417,-0.609782 0.444417,-1.669149 0,-0.614949 -0.191203,-1.157552 -0.170532,-0.496093 -0.563273,-1.002522 -0.775146,-0.976685 -1.586466,-1.266073 -0.81132,-0.289388 -1.415935,-0.289388 -0.583943,0 -1.121378,0.186035 -0.511597,0.180868 -0.98702,0.558106 -0.744141,0.583943 -1.167887,1.539957 -0.418579,0.950847 -0.418579,2.067058 0,0.821655 0.273885,1.607137 0.268717,0.764811 0.790649,1.37976 0.496094,0.589107 1.152385,0.894007 0.651123,0.30489 1.395263,0.30489 0.661458,0 1.307414,-0.24288 0.640788,-0.24288 1.178222,-0.7028 l 0.191203,0.41341 q -0.583943,0.5116 -1.276408,0.78031 -0.687296,0.26872 -1.400431,0.26872 -0.862996,0 -1.627807,-0.34106 -0.769979,-0.34624 -1.369426,-0.99736 -0.599446,-0.656289 -0.909505,-1.519286 -0.315226,-0.857829 -0.315226,-1.850016 0,-0.950846 0.320394,-1.81901 0.351399,-0.956014 0.904337,-1.51412 0.785482,-0.790649 1.395264,-1.059367 0.790649,-0.351399 1.674316,-0.351399 0.992188,0 1.803508,0.320393 0.795817,0.320394 1.669148,1.405599 0.382406,0.475424 0.594279,1.080038 0.201538,0.583943 0.201538,1.204061 0,1.457275 -0.728637,2.206583 -0.738973,0.759644 -2.098063,0.697632 z"
         style="stroke-width:0.26458332"
         id="path835"
         inkscape:connector-curvature="0" />
      <path
         d="m 82.372969,94.187719 v 0.506429 q -0.428915,-0.26355 -0.707968,-0.356567 -0.48059,-0.149862 -0.91984,-0.149862 -1.25057,0 -1.793172,0.640788 -0.542603,0.640787 -0.542603,1.979207 0,1.348755 0.542603,1.989542 0.542602,0.640788 1.793172,0.640788 0.413411,0 0.816488,-0.113688 0.408243,-0.10852 0.81132,-0.330729 v 0.480591 q -0.397909,0.186035 -0.821656,0.279052 -0.428914,0.09302 -0.847493,0.09302 -1.27124,0 -2.020549,-0.687296 -0.749308,-0.692465 -0.749308,-2.351278 0,-1.658814 0.749308,-2.351278 0.749309,-0.687296 2.020549,-0.687296 0.413411,0 0.878499,0.118856 0.465088,0.113688 0.79065,0.299723 z"
         style="stroke-width:0.26458332"
         id="path837"
         inkscape:connector-curvature="0" />
      <path
         d="m 87.504436,94.079198 v 0.521932 q -0.501262,-0.279052 -0.625285,-0.310058 -0.361735,-0.08785 -0.89917,-0.103353 -0.816488,0 -1.281575,0.325561 -0.356568,0.268718 -0.356568,0.919841 0,0.43925 0.335897,0.687296 0.356567,0.268718 1.018026,0.413412 l 0.325561,0.07235 q 0.821655,0.180867 1.245402,0.511596 0.490926,0.377238 0.516764,0.981853 0,0.821655 -0.485758,1.286743 -0.516764,0.45992 -1.663981,0.45992 -0.640788,0 -0.971517,-0.08785 -0.397908,-0.113688 -0.837158,-0.273885 v -0.594279 q 0.630452,0.361735 0.816487,0.413412 0.511597,0.134358 1.012859,0.134358 0.837158,0 1.235066,-0.346232 0.403076,-0.3514 0.403076,-0.91984 0,-0.475423 -0.268717,-0.692464 -0.387573,-0.310059 -1.235067,-0.50643 l -0.330729,-0.07751 q -0.728638,-0.170532 -1.111043,-0.480591 -0.480591,-0.387573 -0.480591,-0.940511 0,-0.909505 0.578776,-1.307414 0.578776,-0.397908 1.421102,-0.397908 0.718302,0 0.992187,0.07751 0.330729,0.09302 0.645956,0.232544 z"
         style="stroke-width:0.26458332"
         id="path839"
         inkscape:connector-curvature="0" />
      <path
         d="m 89.959069,99.045303 h 0.527099 v 0.651123 h -0.527099 z"
         style="stroke-width:0.26458332"
         id="path841"
         inkscape:connector-curvature="0" />
      <path
         d="m 97.069746,94.187719 v 0.506429 q -0.428915,-0.26355 -0.707967,-0.356567 -0.480591,-0.149862 -0.919841,-0.149862 -1.250569,0 -1.793172,0.640788 -0.542602,0.640787 -0.542602,1.979207 0,1.348755 0.542602,1.989542 0.542603,0.640788 1.793172,0.640788 0.413412,0 0.816488,-0.113688 0.408244,-0.10852 0.81132,-0.330729 v 0.480591 q -0.397909,0.186035 -0.821655,0.279052 -0.428915,0.09302 -0.847494,0.09302 -1.27124,0 -2.020548,-0.687296 -0.749309,-0.692465 -0.749309,-2.351278 0,-1.658814 0.749309,-2.351278 0.749308,-0.687296 2.020548,-0.687296 0.413412,0 0.878499,0.118856 0.465088,0.113688 0.79065,0.299723 z"
         style="stroke-width:0.26458332"
         id="path843"
         inkscape:connector-curvature="0" />
      <path
         d="m 103.09005,95.169571 q 0.26872,-0.697632 0.84749,-1.054199 0.54777,-0.346232 1.30225,-0.346232 0.75447,0 1.20923,0.532267 0.45992,0.5271 0.45992,1.901693 v 3.493326 h -0.47026 v -3.46232 q 0,-1.198894 -0.33073,-1.62264 -0.33073,-0.423747 -0.8785,-0.423747 -0.79582,0 -1.4056,0.490926 -0.66662,0.532267 -0.66662,1.746663 v 3.271118 h -0.47543 v -3.46232 q 0,-1.157553 -0.32039,-1.60197 -0.32039,-0.444417 -0.88883,-0.444417 -0.79582,0 -1.4056,0.496094 -0.666629,0.532267 -0.666629,1.741495 v 3.271118 h -0.475424 v -5.78776 h 0.475424 v 1.085205 q 0.253214,-0.568441 0.785479,-0.89917 0.53744,-0.325561 1.31775,-0.325561 0.50643,0 0.97669,0.341064 0.36173,0.26355 0.60978,1.059367 z"
         style="stroke-width:0.26458332"
         id="path845"
         inkscape:connector-curvature="0" />
      <path
         d="m 109.17236,97.401993 v -3.493327 h 0.47543 v 3.462321 q 0,1.126546 0.36173,1.586466 0.36174,0.459921 1.06454,0.459921 0.82165,0 1.4056,-0.496094 0.58911,-0.501261 0.58911,-1.741496 v -3.271118 h 0.47542 v 5.78776 h -0.47542 v -1.085205 q -0.25322,0.5271 -0.66663,0.806153 -0.60978,0.418579 -1.34875,0.418579 -0.85783,0 -1.36943,-0.583944 -0.5116,-0.578776 -0.5116,-1.850016 z"
         style="stroke-width:0.26458332"
         id="path847"
         inkscape:connector-curvature="0" />
      <path
         d="m 116.15902,99.045303 h 0.5271 v 0.651123 h -0.5271 z"
         style="stroke-width:0.26458332"
         id="path849"
         inkscape:connector-curvature="0" />
      <path
         d="m 123.81747,96.564835 v 0.299723 h -4.3925 q 0,1.395264 0.5426,1.953369 0.59945,0.620117 1.78284,0.620117 0.31006,0 0.82166,-0.134358 0.51676,-0.134359 1.02319,-0.403077 v 0.501262 q -0.5116,0.217041 -1.04903,0.330729 -0.53744,0.113688 -0.85266,0.113688 -1.33842,0 -2.01538,-0.72347 -0.73381,-0.769979 -0.73381,-2.25826 0,-1.545125 0.67179,-2.304769 0.6873,-0.790649 1.91203,-0.790649 1.13688,0 1.71566,0.749308 0.57361,0.785482 0.57361,2.046387 z m -0.48059,-0.103353 q 0,-1.219564 -0.54777,-1.777669 -0.45992,-0.496094 -1.25057,-0.496094 -0.863,0 -1.44694,0.516764 -0.53744,0.480591 -0.64596,1.756999 z"
         style="stroke-width:0.26458332"
         id="path851"
         inkscape:connector-curvature="0" />
      <path
         d="m 129.66207,95.231583 v -3.576009 h 0.46509 v 8.040852 h -0.46509 v -1.312581 q -0.32556,0.754476 -0.70797,1.033529 -0.58394,0.428914 -1.1007,0.428914 -1.02836,0 -1.71049,-0.837158 -0.68213,-0.837158 -0.68213,-2.201416 0,-1.364258 0.68213,-2.201416 0.68213,-0.837158 1.71049,-0.837158 0.51676,0 1.1007,0.428914 0.38241,0.279053 0.70797,1.033529 z m -3.10058,-0.43925 q -0.59945,0.604614 -0.59945,2.015381 0,1.410766 0.59945,2.015381 0.59427,0.604614 1.25573,0.604614 0.64596,0 1.24541,-0.604614 0.59427,-0.604615 0.59427,-2.015381 0,-1.410767 -0.59427,-2.015381 -0.59945,-0.604614 -1.24541,-0.604614 -0.66146,0 -1.25573,0.604614 z"
         style="stroke-width:0.26458332"
         id="path853"
         inkscape:connector-curvature="0" />
      <path
         d="m 132.47327,97.401993 v -3.493327 h 0.47542 v 3.462321 q 0,1.126546 0.36174,1.586466 0.36173,0.459921 1.06453,0.459921 0.82166,0 1.4056,-0.496094 0.58911,-0.501261 0.58911,-1.741496 v -3.271118 h 0.47542 v 5.78776 h -0.47542 v -1.085205 q -0.25321,0.5271 -0.66663,0.806153 -0.60978,0.418579 -1.34875,0.418579 -0.85783,0 -1.36943,-0.583944 -0.51159,-0.578776 -0.51159,-1.850016 z"
         style="stroke-width:0.26458332"
         id="path855"
         inkscape:connector-curvature="0" />
    </g>
    <flowRoot
       xml:space="preserve"
       id="flowRoot925"
       style="fill:black;fill-opacity:1;stroke:none;font-family:sans-serif;font-style:normal;font-weight:normal;font-size:40px;line-height:1.25;letter-spacing:0px;word-spacing:0px"><flowRegion
         id="flowRegion927"><rect
           id="rect929"
           width="102.02541"
           height="173.74623"
           x="138.3909"
           y="36.333595" /></flowRegion><flowPara
         id="flowPara931"></flowPara></flowRoot>    <flowRoot
       xml:space="preserve"
       id="flowRoot933"
       style="fill:black;fill-opacity:1;stroke:none;font-family:sans-serif;font-style:normal;font-weight:normal;font-size:40px;line-height:1.25;letter-spacing:0px;word-spacing:0px"><flowRegion
         id="flowRegion935"><rect
           id="rect937"
           width="544.97729"
           height="87.88327"
           x="-47.982246"
           y="-17.204491" /></flowRegion><flowPara
         id="flowPara939"></flowPara></flowRoot>  </g>
</svg>
