<?xml version="1.0" encoding="UTF-8" standalone="no"?>
<!-- Created with Inkscape (http://www.inkscape.org/) -->

<svg
   xmlns:dc="http://purl.org/dc/elements/1.1/"
   xmlns:cc="http://creativecommons.org/ns#"
   xmlns:rdf="http://www.w3.org/1999/02/22-rdf-syntax-ns#"
   xmlns:svg="http://www.w3.org/2000/svg"
   xmlns="http://www.w3.org/2000/svg"
   xmlns:sodipodi="http://sodipodi.sourceforge.net/DTD/sodipodi-0.dtd"
   xmlns:inkscape="http://www.inkscape.org/namespaces/inkscape"
   width="144.11522mm"
   height="10.004557mm"
   viewBox="0 0 144.11522 10.004557"
   version="1.1"
   id="svg8"
   inkscape:version="0.92.5 (2060ec1f9f, 2020-04-08)"
   sodipodi:docname="email4.svg">
  <defs
     id="defs2" />
  <sodipodi:namedview
     id="base"
     pagecolor="#ffffff"
     bordercolor="#666666"
     borderopacity="1.0"
     inkscape:pageopacity="0.0"
     inkscape:pageshadow="2"
     inkscape:zoom="2.8"
     inkscape:cx="189.10564"
     inkscape:cy="-9.3978713"
     inkscape:document-units="mm"
     inkscape:current-layer="layer1"
     showgrid="false"
     inkscape:window-width="1920"
     inkscape:window-height="1016"
     inkscape:window-x="0"
     inkscape:window-y="27"
     inkscape:window-maximized="1" />
  <metadata
     id="metadata5">
    <rdf:RDF>
      <cc:Work
         rdf:about="">
        <dc:format>image/svg+xml</dc:format>
        <dc:type
           rdf:resource="http://purl.org/dc/dcmitype/StillImage" />
        <dc:title></dc:title>
      </cc:Work>
    </rdf:RDF>
  </metadata>
  <g
     inkscape:label="Layer 1"
     inkscape:groupmode="layer"
     id="layer1"
     transform="translate(-21.134185,-133.23295)">
    <g
       aria-label="colinmcd@andrew.cmu.edu"
       style="font-style:normal;font-weight:300;font-size:10.58333302px;line-height:1.25;font-family:sans-serif;letter-spacing:0px;word-spacing:0px;fill:#000000;fill-opacity:1;stroke:none;stroke-width:0.26458332"
       id="text817">
      <path
         d="m 25.573191,135.7651 v 0.50643 q -0.428915,-0.26355 -0.707968,-0.35657 -0.48059,-0.14986 -0.91984,-0.14986 -1.25057,0 -1.793172,0.64078 -0.542603,0.64079 -0.542603,1.97921 0,1.34876 0.542603,1.98954 0.542602,0.64079 1.793172,0.64079 0.413411,0 0.816488,-0.11369 0.408243,-0.10852 0.81132,-0.33073 v 0.4806 q -0.397909,0.18603 -0.821656,0.27905 -0.428914,0.093 -0.847493,0.093 -1.27124,0 -2.020549,-0.6873 -0.749308,-0.69247 -0.749308,-2.35128 0,-1.65881 0.749308,-2.35128 0.749309,-0.68729 2.020549,-0.68729 0.413411,0 0.878499,0.11885 0.465088,0.11369 0.79065,0.29973 z"
         style="stroke-width:0.26458332"
         id="path883" />
      <path
         d="m 30.870025,136.47823 q -0.511597,-0.71313 -1.395264,-0.71313 -0.883667,0 -1.395264,0.70796 -0.516764,0.7028 -0.516764,1.9017 0,1.22989 0.511597,1.93269 0.511596,0.70797 1.400431,0.70797 0.883667,0 1.395264,-0.70797 0.516764,-0.71313 0.516764,-1.93269 0,-1.18339 -0.516764,-1.89653 z m -1.400432,-1.13171 q 1.105876,0 1.746664,0.82682 0.645955,0.83199 0.645955,2.20658 0,1.42111 -0.645955,2.24276 -0.640788,0.82682 -1.746664,0.82682 -1.11621,0 -1.762166,-0.82165 -0.640788,-0.82166 -0.640788,-2.24793 0,-1.39009 0.645956,-2.21175 0.645955,-0.82165 1.756998,-0.82165 z"
         style="stroke-width:0.26458332"
         id="path885" />
      <path
         d="m 33.903432,133.23295 h 0.475423 v 8.04085 h -0.475423 z"
         style="stroke-width:0.26458332"
         id="path887" />
      <path
         d="m 36.833485,135.48604 h 0.475423 v 5.78776 h -0.475423 z m 0,-2.25309 h 0.475423 v 0.65112 h -0.475423 z"
         style="stroke-width:0.26458332"
         id="path889" />
      <path
         d="m 44.156035,137.78048 v 3.49332 h -0.475423 v -3.46232 q 0,-1.12654 -0.361735,-1.58646 -0.361735,-0.45992 -1.064535,-0.45992 -0.821655,0 -1.405599,0.49609 -0.589111,0.50126 -0.589111,1.7415 v 3.27111 h -0.475423 v -5.78776 h 0.475423 v 1.08521 q 0.253215,-0.5271 0.666626,-0.80615 0.609782,-0.41858 1.348755,-0.41858 0.857829,0 1.369425,0.58394 0.511597,0.57878 0.511597,1.85002 z"
         style="stroke-width:0.26458332"
         id="path891" />
      <path
         d="m 50.656931,136.74695 q 0.268717,-0.69763 0.847493,-1.0542 0.54777,-0.34623 1.302246,-0.34623 0.754476,0 1.209229,0.53226 0.45992,0.5271 0.45992,1.9017 v 3.49332 h -0.470256 v -3.46232 q 0,-1.19889 -0.330729,-1.62264 -0.330729,-0.42374 -0.878499,-0.42374 -0.795817,0 -1.405599,0.49092 -0.666626,0.53227 -0.666626,1.74667 v 3.27111 h -0.475423 v -3.46232 q 0,-1.15755 -0.320394,-1.60197 -0.320394,-0.44441 -0.888835,-0.44441 -0.795817,0 -1.405598,0.49609 -0.666626,0.53227 -0.666626,1.7415 v 3.27111 H 46.49181 v -5.78776 h 0.475424 v 1.08521 q 0.253214,-0.56844 0.785481,-0.89917 0.537435,-0.32556 1.317749,-0.32556 0.506429,0 0.976685,0.34106 0.361735,0.26355 0.609782,1.05937 z"
         style="stroke-width:0.26458332"
         id="path893" />
      <path
         d="m 60.764841,135.7651 v 0.50643 q -0.428914,-0.26355 -0.707967,-0.35657 -0.480591,-0.14986 -0.919841,-0.14986 -1.250569,0 -1.793172,0.64078 -0.542602,0.64079 -0.542602,1.97921 0,1.34876 0.542602,1.98954 0.542603,0.64079 1.793172,0.64079 0.413412,0 0.816488,-0.11369 0.408244,-0.10852 0.81132,-0.33073 v 0.4806 q -0.397909,0.18603 -0.821655,0.27905 -0.428915,0.093 -0.847494,0.093 -1.27124,0 -2.020548,-0.6873 -0.749308,-0.69247 -0.749308,-2.35128 0,-1.65881 0.749308,-2.35128 0.749308,-0.68729 2.020548,-0.68729 0.413412,0 0.8785,0.11885 0.465087,0.11369 0.790649,0.29973 z"
         style="stroke-width:0.26458332"
         id="path895" />
      <path
         d="m 66.464749,136.80896 v -3.57601 h 0.465088 v 8.04085 h -0.465088 v -1.31258 q -0.325562,0.75448 -0.707967,1.03353 -0.583944,0.42892 -1.100708,0.42892 -1.028361,0 -1.71049,-0.83716 -0.682129,-0.83716 -0.682129,-2.20142 0,-1.36426 0.682129,-2.20141 0.682129,-0.83716 1.71049,-0.83716 0.516764,0 1.100708,0.42891 0.382405,0.27905 0.707967,1.03353 z m -3.100586,-0.43925 q -0.599447,0.60461 -0.599447,2.01538 0,1.41077 0.599447,2.01538 0.594279,0.60462 1.255737,0.60462 0.645956,0 1.245402,-0.60462 0.594279,-0.60461 0.594279,-2.01538 0,-1.41077 -0.594279,-2.01538 -0.599446,-0.60461 -1.245402,-0.60461 -0.661458,0 -1.255737,0.60461 z"
         style="stroke-width:0.26458332"
         id="path897" />
      <path
         d="m 72.128487,138.49878 q 0,0.89917 0.387573,1.41077 0.387574,0.51159 1.064535,0.51159 0.666626,0 1.054199,-0.51676 0.382406,-0.5116 0.382406,-1.4056 0,-0.8785 -0.392741,-1.39526 -0.392741,-0.52194 -1.054199,-0.52194 -0.661459,0 -1.0542,0.51677 -0.387573,0.51676 -0.387573,1.40043 z m 2.89388,1.54512 q -0.28422,0.39791 -0.65629,0.58912 -0.366903,0.18603 -0.857829,0.18603 -0.821655,0 -1.333252,-0.64079 -0.516764,-0.64595 -0.516764,-1.67948 0,-1.03353 0.516764,-1.67948 0.516764,-0.64596 1.333252,-0.64596 0.490926,0 0.862996,0.1912 0.372071,0.19637 0.651123,0.58911 v -0.67696 h 0.475423 v 4.01009 q 0.976685,-0.12402 1.405599,-0.7183 0.444418,-0.60978 0.444418,-1.66915 0,-0.61495 -0.191203,-1.15755 -0.170532,-0.49609 -0.563273,-1.00252 -0.775147,-0.97669 -1.586467,-1.26607 -0.81132,-0.28939 -1.415934,-0.28939 -0.583944,0 -1.121378,0.18603 -0.511597,0.18087 -0.98702,0.55811 -0.744141,0.58394 -1.167888,1.53996 -0.418579,0.95084 -0.418579,2.06705 0,0.82166 0.273885,1.60714 0.268718,0.76481 0.79065,1.37976 0.496094,0.58911 1.152384,0.894 0.651123,0.30489 1.395264,0.30489 0.661458,0 1.307414,-0.24288 0.640787,-0.24287 1.178222,-0.70279 l 0.191203,0.41341 q -0.583944,0.51159 -1.276408,0.78031 -0.687296,0.26872 -1.400431,0.26872 -0.862997,0 -1.627808,-0.34107 -0.769979,-0.34623 -1.369425,-0.99735 -0.599447,-0.65629 -0.909505,-1.51929 -0.315227,-0.85783 -0.315227,-1.85001 0,-0.95085 0.320394,-1.81902 0.3514,-0.95601 0.904338,-1.51411 0.785482,-0.79065 1.395263,-1.05937 0.79065,-0.3514 1.674317,-0.3514 0.992187,0 1.803507,0.32039 0.795817,0.3204 1.669149,1.4056 0.382406,0.47542 0.594279,1.08004 0.201538,0.58394 0.201538,1.20406 0,1.45728 -0.728638,2.20658 -0.738973,0.75965 -2.098063,0.69764 z"
         style="stroke-width:0.26458332"
         id="path899" />
      <path
         d="m 82.236396,138.00785 q -1.147217,0 -1.653646,0.40825 -0.506429,0.40824 -0.506429,1.19372 0,0.76481 0.418579,1.08521 0.418579,0.32039 0.992188,0.32039 1.085205,0 1.560628,-0.91984 0.480591,-0.91984 0.480591,-1.73116 v -0.35657 z m 1.772502,-0.0362 v 3.30212 h -0.470256 v -1.57096 q -0.397908,1.15238 -1.054199,1.46761 -0.521932,0.25322 -1.038696,0.25322 -0.862997,0 -1.35909,-0.45992 -0.496094,-0.46509 -0.496094,-1.36426 0,-0.89917 0.645955,-1.43661 0.645956,-0.5426 2.113566,-0.5426 h 1.178223 v -0.093 q 0,-0.76998 -0.43925,-1.26607 -0.434082,-0.49609 -1.436605,-0.49609 -0.496093,0 -1.012858,0.18603 -0.330729,0.11886 -0.857828,0.48059 v -0.51159 q 0.45992,-0.28422 0.857828,-0.40308 0.578776,-0.17053 1.111044,-0.17053 1.023193,0 1.684651,0.62011 0.573609,0.53227 0.573609,2.00505 z"
         style="stroke-width:0.26458332"
         id="path901" />
      <path
         d="m 90.778508,137.78048 v 3.49332 h -0.475423 v -3.46232 q 0,-1.12654 -0.361735,-1.58646 -0.361735,-0.45992 -1.064535,-0.45992 -0.821655,0 -1.405599,0.49609 -0.589111,0.50126 -0.589111,1.7415 v 3.27111 h -0.475423 v -5.78776 h 0.475423 v 1.08521 q 0.253214,-0.5271 0.666626,-0.80615 0.609782,-0.41858 1.348755,-0.41858 0.857828,0 1.369425,0.58394 0.511597,0.57878 0.511597,1.85002 z"
         style="stroke-width:0.26458332"
         id="path903" />
      <path
         d="m 96.959012,136.80896 v -3.57601 h 0.465087 v 8.04085 h -0.465087 v -1.31258 q -0.325562,0.75448 -0.707968,1.03353 -0.583943,0.42892 -1.100708,0.42892 -1.02836,0 -1.710489,-0.83716 -0.682129,-0.83716 -0.682129,-2.20142 0,-1.36426 0.682129,-2.20141 0.682129,-0.83716 1.710489,-0.83716 0.516765,0 1.100708,0.42891 0.382406,0.27905 0.707968,1.03353 z m -3.100586,-0.43925 q -0.599447,0.60461 -0.599447,2.01538 0,1.41077 0.599447,2.01538 0.594279,0.60462 1.255737,0.60462 0.645955,0 1.245402,-0.60462 0.594279,-0.60461 0.594279,-2.01538 0,-1.41077 -0.594279,-2.01538 -0.599447,-0.60461 -1.245402,-0.60461 -0.661458,0 -1.255737,0.60461 z"
         style="stroke-width:0.26458332"
         id="path905" />
      <path
         d="m 102.97415,135.89429 q -0.11369,-0.0569 -0.31006,-0.0982 -0.1757,-0.031 -0.44442,-0.031 -0.8785,0 -1.45728,0.65112 -0.45475,0.5271 -0.45475,1.80867 v 3.04891 h -0.465086 v -5.78776 h 0.465086 v 1.08521 q 0.23255,-0.46509 0.65112,-0.78548 0.57878,-0.43925 1.36426,-0.43925 0.20154,0 0.3514,0.0155 0.15503,0 0.29973,0.0362 z"
         style="stroke-width:0.26458332"
         id="path907" />
      <path
         d="m 108.46219,138.14221 v 0.29973 h -4.3925 q 0,1.39526 0.5426,1.95336 0.59945,0.62012 1.78284,0.62012 0.31006,0 0.82165,-0.13436 0.51677,-0.13436 1.0232,-0.40307 v 0.50126 q -0.5116,0.21704 -1.04903,0.33073 -0.53744,0.11369 -0.85267,0.11369 -1.33842,0 -2.01538,-0.72347 -0.7338,-0.76998 -0.7338,-2.25826 0,-1.54513 0.67179,-2.30477 0.6873,-0.79065 1.91203,-0.79065 1.13688,0 1.71566,0.74931 0.57361,0.78548 0.57361,2.04638 z m -0.4806,-0.10335 q 0,-1.21956 -0.54777,-1.77767 -0.45992,-0.49609 -1.25057,-0.49609 -0.86299,0 -1.44694,0.51676 -0.53743,0.48059 -0.64595,1.757 z"
         style="stroke-width:0.26458332"
         id="path909" />
      <path
         d="m 109.93496,135.48604 h 0.49093 l 1.35909,5.15731 1.34875,-5.15731 h 0.60462 l 1.35909,5.18315 1.35392,-5.18315 h 0.49093 l -1.51412,5.78776 h -0.66146 l -1.33325,-5.07462 -1.32809,5.07462 h -0.65112 z"
         style="stroke-width:0.26458332"
         id="path911" />
      <path
         d="m 118.36339,140.62268 h 0.5271 v 0.65112 h -0.5271 z"
         style="stroke-width:0.26458332"
         id="path913" />
      <path
         d="m 125.47407,135.7651 v 0.50643 q -0.42891,-0.26355 -0.70797,-0.35657 -0.48059,-0.14986 -0.91984,-0.14986 -1.25057,0 -1.79317,0.64078 -0.5426,0.64079 -0.5426,1.97921 0,1.34876 0.5426,1.98954 0.5426,0.64079 1.79317,0.64079 0.41341,0 0.81649,-0.11369 0.40824,-0.10852 0.81132,-0.33073 v 0.4806 q -0.39791,0.18603 -0.82166,0.27905 -0.42891,0.093 -0.84749,0.093 -1.27124,0 -2.02055,-0.6873 -0.74931,-0.69247 -0.74931,-2.35128 0,-1.65881 0.74931,-2.35128 0.74931,-0.68729 2.02055,-0.68729 0.41341,0 0.8785,0.11885 0.46509,0.11369 0.79065,0.29973 z"
         style="stroke-width:0.26458332"
         id="path915" />
      <path
         d="m 131.49437,136.74695 q 0.26872,-0.69763 0.84749,-1.0542 0.54777,-0.34623 1.30225,-0.34623 0.75448,0 1.20923,0.53226 0.45992,0.5271 0.45992,1.9017 v 3.49332 H 134.843 v -3.46232 q 0,-1.19889 -0.33073,-1.62264 -0.33072,-0.42374 -0.87849,-0.42374 -0.79582,0 -1.4056,0.49092 -0.66663,0.53227 -0.66663,1.74667 v 3.27111 h -0.47542 v -3.46232 q 0,-1.15755 -0.3204,-1.60197 -0.32039,-0.44441 -0.88883,-0.44441 -0.79582,0 -1.4056,0.49609 -0.66663,0.53227 -0.66663,1.7415 v 3.27111 h -0.47542 v -5.78776 h 0.47542 v 1.08521 q 0.25322,-0.56844 0.78549,-0.89917 0.53743,-0.32556 1.31774,-0.32556 0.50643,0 0.97669,0.34106 0.36173,0.26355 0.60978,1.05937 z"
         style="stroke-width:0.26458332"
         id="path917" />
      <path
         d="m 137.57669,138.97937 v -3.49333 h 0.47542 v 3.46232 q 0,1.12655 0.36174,1.58647 0.36173,0.45992 1.06453,0.45992 0.82166,0 1.4056,-0.49609 0.58911,-0.50126 0.58911,-1.7415 v -3.27112 h 0.47542 v 5.78776 h -0.47542 v -1.0852 q -0.25321,0.5271 -0.66663,0.80615 -0.60978,0.41858 -1.34875,0.41858 -0.85783,0 -1.36943,-0.58394 -0.51159,-0.57878 -0.51159,-1.85002 z"
         style="stroke-width:0.26458332"
         id="path919" />
      <path
         d="m 144.56334,140.62268 h 0.5271 v 0.65112 h -0.5271 z"
         style="stroke-width:0.26458332"
         id="path921" />
      <path
         d="m 152.22179,138.14221 v 0.29973 h -4.3925 q 0,1.39526 0.54261,1.95336 0.59944,0.62012 1.78283,0.62012 0.31006,0 0.82166,-0.13436 0.51676,-0.13436 1.02319,-0.40307 v 0.50126 q -0.51159,0.21704 -1.04903,0.33073 -0.53743,0.11369 -0.85266,0.11369 -1.33842,0 -2.01538,-0.72347 -0.73381,-0.76998 -0.73381,-2.25826 0,-1.54513 0.6718,-2.30477 0.68729,-0.79065 1.91202,-0.79065 1.13689,0 1.71566,0.74931 0.57361,0.78548 0.57361,2.04638 z m -0.48059,-0.10335 q 0,-1.21956 -0.54777,-1.77767 -0.45992,-0.49609 -1.25057,-0.49609 -0.863,0 -1.44694,0.51676 -0.53743,0.48059 -0.64596,1.757 z"
         style="stroke-width:0.26458332"
         id="path923" />
      <path
         d="m 158.0664,136.80896 v -3.57601 h 0.46508 v 8.04085 h -0.46508 v -1.31258 q -0.32557,0.75448 -0.70797,1.03353 -0.58395,0.42892 -1.10071,0.42892 -1.02836,0 -1.71049,-0.83716 -0.68213,-0.83716 -0.68213,-2.20142 0,-1.36426 0.68213,-2.20141 0.68213,-0.83716 1.71049,-0.83716 0.51676,0 1.10071,0.42891 0.3824,0.27905 0.70797,1.03353 z m -3.10059,-0.43925 q -0.59945,0.60461 -0.59945,2.01538 0,1.41077 0.59945,2.01538 0.59428,0.60462 1.25574,0.60462 0.64595,0 1.2454,-0.60462 0.59428,-0.60461 0.59428,-2.01538 0,-1.41077 -0.59428,-2.01538 -0.59945,-0.60461 -1.2454,-0.60461 -0.66146,0 -1.25574,0.60461 z"
         style="stroke-width:0.26458332"
         id="path925" />
      <path
         d="m 160.87758,138.97937 v -3.49333 h 0.47543 v 3.46232 q 0,1.12655 0.36173,1.58647 0.36174,0.45992 1.06454,0.45992 0.82165,0 1.40559,-0.49609 0.58912,-0.50126 0.58912,-1.7415 v -3.27112 h 0.47542 v 5.78776 h -0.47542 v -1.0852 q -0.25322,0.5271 -0.66663,0.80615 -0.60978,0.41858 -1.34875,0.41858 -0.85783,0 -1.36943,-0.58394 -0.5116,-0.57878 -0.5116,-1.85002 z"
         style="stroke-width:0.26458332"
         id="path927" />
    </g>
  </g>
</svg>
